<svg version="1.1" id="Layer_1" xmlns="http://www.w3.org/2000/svg" xmlns:xlink="http://www.w3.org/1999/xlink" x="0px" y="0px"
	 width="100%" viewBox="0 0 512 512" enable-background="new 0 0 512 512" xml:space="preserve">
<path fill="#000000" opacity="1.000000" stroke="none" 
	d="
M298.000000,513.000000 
	C198.690781,513.000000 99.881554,513.000000 1.036167,513.000000 
	C1.036167,342.399078 1.036167,171.798172 1.036167,1.098622 
	C171.559235,1.098622 342.118561,1.098622 512.838928,1.098622 
	C512.838928,171.666550 512.838928,342.333252 512.838928,513.000000 
	C441.464813,513.000000 369.982391,513.000000 298.000000,513.000000 
M192.501740,474.000000 
	C253.663589,473.999908 314.825439,474.010895 375.987305,473.989838 
	C387.273956,473.985931 397.229645,465.632355 399.751465,454.202576 
	C401.855927,444.664276 395.451385,432.334320 385.709595,428.573700 
	C381.780609,427.056976 380.906738,425.075195 380.923615,421.240997 
	C381.059723,390.243988 381.013763,359.246094 380.992584,328.248474 
	C380.984802,316.876587 373.287781,308.627258 361.888519,308.094818 
	C358.906555,307.955505 357.142212,307.228271 355.591705,304.484467 
	C345.729156,287.031830 331.289795,274.806763 312.565277,267.641754 
	C311.939545,267.402313 311.343781,267.084564 310.165161,266.540894 
	C319.567719,256.551025 325.381927,245.593033 325.732697,232.967285 
	C326.087311,220.203247 321.771454,208.789520 312.714661,199.006714 
	C298.103088,183.223862 271.692017,177.586624 252.843674,191.941696 
	C224.226440,213.736877 224.816360,239.831314 246.216370,267.043152 
	C245.120956,267.572968 244.554062,267.882416 243.960953,268.128876 
	C225.537155,275.785461 211.050171,287.909637 201.135513,305.399017 
	C200.376175,306.738495 198.030930,307.782806 196.348923,307.899597 
	C183.242294,308.809235 176.002777,316.363434 176.001251,329.499786 
	C175.997711,359.997437 175.944199,390.495361 176.071274,420.992462 
	C176.087021,424.769257 175.446609,426.897888 171.309219,428.205872 
	C162.436325,431.010986 155.943375,440.876587 156.002716,450.130066 
	C156.063232,459.567963 162.775665,469.883545 171.804230,472.187958 
	C178.113586,473.798279 184.919006,473.465088 192.501740,474.000000 
M164.500000,48.000305 
	C149.839462,48.000305 135.139587,48.666859 120.529922,47.804684 
	C107.089043,47.011490 98.789261,57.904083 98.915977,69.612068 
	C99.189995,94.931992 98.984840,120.256958 99.030571,145.579758 
	C99.034126,147.546021 99.199509,149.589233 99.744675,151.464401 
	C102.708794,161.659805 109.972092,166.916016 121.352600,166.975952 
	C138.345123,167.065445 155.339203,166.925354 172.330505,167.094727 
	C174.440216,167.115768 177.135239,167.830780 178.544556,169.239288 
	C189.133102,179.821777 199.472000,190.654266 209.867447,201.429306 
	C210.435165,202.017715 210.785278,202.810425 211.279770,203.476059 
	C214.319489,207.567734 219.109283,209.472092 223.093079,207.683105 
	C227.063187,205.900223 228.114258,202.354828 228.043488,198.162567 
	C227.897293,189.501953 228.214966,180.829514 227.908798,172.177261 
	C227.756561,167.875610 229.335739,166.619812 233.373245,166.939102 
	C237.015549,167.227158 240.701630,167.092529 244.363373,166.980072 
	C257.226593,166.584991 264.996033,158.549088 264.998505,145.707520 
	C265.003479,119.718239 265.008026,93.728958 264.996460,67.739677 
	C264.991058,55.625961 257.462158,48.011856 245.467010,48.005054 
	C218.811340,47.989948 192.155670,48.000320 164.500000,48.000305 
M173.000000,249.500000 
	C173.000000,240.839966 172.777008,232.172928 173.049591,223.521469 
	C173.518860,208.627380 165.330627,200.190201 150.341217,200.093369 
	C109.707047,199.830856 69.069504,199.884964 28.434538,200.076340 
	C15.911534,200.135330 7.068528,208.259048 7.031755,219.090591 
	C6.939032,246.402908 6.939526,273.715973 7.033633,301.028259 
	C7.067878,310.967285 15.337549,318.982727 25.223122,318.994080 
	C43.209469,319.014740 61.196224,318.947144 79.181694,319.074219 
	C81.182671,319.088348 83.815918,319.501007 85.073540,320.787231 
	C96.339050,332.308960 107.484360,343.955353 118.390839,355.817169 
	C122.316399,360.086609 126.226295,362.269775 130.500580,360.600891 
	C135.334503,358.713440 136.017944,354.440033 136.006409,349.901245 
	C135.984375,341.241211 136.107925,332.579102 135.950775,323.921875 
	C135.883957,320.240875 137.304428,318.789825 140.958466,318.959076 
	C144.946869,319.143890 148.950455,319.003693 152.947433,318.999359 
	C164.627167,318.986786 172.964630,310.691895 172.990799,298.963257 
	C173.026840,282.808929 172.999939,266.654419 173.000000,249.500000 
M441.506073,239.000000 
	C455.332062,238.999634 469.159088,239.103607 482.983734,238.967102 
	C494.822601,238.850204 503.810608,230.422638 503.917999,218.726227 
	C504.161133,192.242325 504.154083,165.753250 503.919769,139.269196 
	C503.819244,127.906181 495.294312,120.004173 484.089447,120.002640 
	C441.778259,119.996834 399.467072,119.988190 357.155884,120.008369 
	C345.772095,120.013794 338.020050,127.751060 338.008667,139.113724 
	C337.981903,165.766418 337.981476,192.419159 338.009979,219.071854 
	C338.020477,228.881165 343.435059,236.063278 353.151886,237.885391 
	C358.963593,238.975220 365.033142,238.843384 370.991699,238.933228 
	C374.025757,238.978973 375.089935,240.017639 375.044830,243.034256 
	C374.912781,251.860977 375.112091,260.693024 374.951508,269.518799 
	C374.873291,273.819427 375.509369,277.965302 379.795288,279.553192 
	C384.367126,281.247009 388.423676,279.517242 391.809448,275.747192 
	C399.908417,266.729004 408.649048,258.256958 416.349670,248.920319 
	C422.862213,241.024277 430.331604,237.146729 441.506073,239.000000 
z"/>
<path fill="#040504" opacity="1.000000" stroke="none" 
	d="
M192.002289,474.000000 
	C184.919006,473.465088 178.113586,473.798279 171.804230,472.187958 
	C162.775665,469.883545 156.063232,459.567963 156.002716,450.130066 
	C155.943375,440.876587 162.436325,431.010986 171.309219,428.205872 
	C175.446609,426.897888 176.087021,424.769257 176.071274,420.992462 
	C175.944199,390.495361 175.997711,359.997437 176.001251,329.499786 
	C176.002777,316.363434 183.242294,308.809235 196.348923,307.899597 
	C198.030930,307.782806 200.376175,306.738495 201.135513,305.399017 
	C211.050171,287.909637 225.537155,275.785461 243.960953,268.128876 
	C244.554062,267.882416 245.120956,267.572968 246.216370,267.043152 
	C224.816360,239.831314 224.226440,213.736877 252.843674,191.941696 
	C271.692017,177.586624 298.103088,183.223862 312.714661,199.006714 
	C321.771454,208.789520 326.087311,220.203247 325.732697,232.967285 
	C325.381927,245.593033 319.567719,256.551025 310.165161,266.540894 
	C311.343781,267.084564 311.939545,267.402313 312.565277,267.641754 
	C331.289795,274.806763 345.729156,287.031830 355.591705,304.484467 
	C357.142212,307.228271 358.906555,307.955505 361.888519,308.094818 
	C373.287781,308.627258 380.984802,316.876587 380.992584,328.248474 
	C381.013763,359.246094 381.059723,390.243988 380.923615,421.240997 
	C380.906738,425.075195 381.780609,427.056976 385.709595,428.573700 
	C395.451385,432.334320 401.855927,444.664276 399.751465,454.202576 
	C397.229645,465.632355 387.273956,473.985931 375.987305,473.989838 
	C314.825439,474.010895 253.663589,473.999908 192.002289,474.000000 
M284.500000,324.922943 
	C255.849701,324.922974 227.198608,325.030945 198.549927,324.815460 
	C193.842209,324.780060 192.665451,326.259644 192.690384,330.762024 
	C192.859253,361.243652 192.774414,391.726715 192.791718,422.209290 
	C192.792542,423.650909 192.984268,425.092407 193.088760,426.557434 
	C250.281784,426.557434 307.124664,426.557434 363.935791,426.557434 
	C364.074097,425.668457 364.217133,425.177124 364.217438,424.685730 
	C364.237915,392.870789 364.189819,361.055573 364.324768,329.241150 
	C364.342773,325.002228 362.118652,324.878784 358.957947,324.887207 
	C334.472107,324.952393 309.986023,324.923004 284.500000,324.922943 
M260.442200,205.125977 
	C259.666229,205.275620 258.496246,205.156296 258.179901,205.619705 
	C256.460236,208.138809 254.966522,210.811081 253.366837,213.413300 
	C247.967712,222.195938 244.924683,231.130966 248.911057,241.625992 
	C251.853317,249.372177 257.017303,255.843216 263.691956,259.006226 
	C273.342529,263.579468 284.055481,263.907104 294.069519,257.673126 
	C304.943237,250.903976 311.194183,237.371567 308.589325,225.387268 
	C303.990845,204.230835 282.229309,194.403595 260.442200,205.125977 
M333.500000,457.222839 
	C347.497498,457.218994 361.495392,457.275360 375.492279,457.181396 
	C380.994904,457.144440 383.737549,454.054230 383.084076,449.084351 
	C382.542145,444.962799 379.580231,443.007172 373.748444,443.006592 
	C309.926300,443.000183 246.104141,443.002380 182.281982,443.003906 
	C181.282318,443.003937 180.269501,442.924164 179.285278,443.053101 
	C175.031891,443.610382 172.534012,446.790375 172.912964,451.076172 
	C173.297348,455.423523 175.869644,457.210297 182.026352,457.212219 
	C232.184235,457.227814 282.342133,457.222260 333.500000,457.222839 
M247.499878,308.654907 
	C277.563599,308.654907 307.627289,308.654907 338.381165,308.654907 
	C333.537140,299.983215 327.013000,293.983948 319.870453,288.864685 
	C316.224884,286.251770 312.288177,283.744720 307.293213,283.017822 
	C301.454010,282.168091 295.924957,278.855743 290.102051,278.309204 
	C282.849915,277.628479 275.359100,278.119202 268.105164,279.096832 
	C249.380356,281.620636 232.858749,288.584747 221.384628,304.578339 
	C220.581772,305.697449 219.931839,306.926270 218.873627,308.654816 
	C228.580368,308.654816 237.540115,308.654816 247.499878,308.654907 
z"/>
<path fill="#040504" opacity="1.000000" stroke="none" 
	d="
M165.000000,48.000305 
	C192.155670,48.000320 218.811340,47.989948 245.467010,48.005054 
	C257.462158,48.011856 264.991058,55.625961 264.996460,67.739677 
	C265.008026,93.728958 265.003479,119.718239 264.998505,145.707520 
	C264.996033,158.549088 257.226593,166.584991 244.363373,166.980072 
	C240.701630,167.092529 237.015549,167.227158 233.373245,166.939102 
	C229.335739,166.619812 227.756561,167.875610 227.908798,172.177261 
	C228.214966,180.829514 227.897293,189.501953 228.043488,198.162567 
	C228.114258,202.354828 227.063187,205.900223 223.093079,207.683105 
	C219.109283,209.472092 214.319489,207.567734 211.279770,203.476059 
	C210.785278,202.810425 210.435165,202.017715 209.867447,201.429306 
	C199.472000,190.654266 189.133102,179.821777 178.544556,169.239288 
	C177.135239,167.830780 174.440216,167.115768 172.330505,167.094727 
	C155.339203,166.925354 138.345123,167.065445 121.352600,166.975952 
	C109.972092,166.916016 102.708794,161.659805 99.744675,151.464401 
	C99.199509,149.589233 99.034126,147.546021 99.030571,145.579758 
	C98.984840,120.256958 99.189995,94.931992 98.915977,69.612068 
	C98.789261,57.904083 107.089043,47.011490 120.529922,47.804684 
	C135.139587,48.666859 149.839462,48.000305 165.000000,48.000305 
M248.662796,102.246445 
	C248.662796,91.752083 248.675095,81.257706 248.658249,70.763374 
	C248.647919,64.333786 248.336990,64.036438 241.883362,64.035957 
	C203.237381,64.033073 164.591385,64.023476 125.945404,64.041298 
	C114.459358,64.046600 115.929070,62.939709 115.893333,74.230721 
	C115.841362,90.652039 115.879997,107.073647 115.879997,124.388374 
	C125.412025,117.213120 134.240753,110.540642 143.099243,103.907928 
	C149.520493,99.100082 151.058594,99.062607 157.753113,103.388916 
	C166.062134,108.758583 174.361877,114.142609 182.839249,119.632889 
	C184.091476,118.169243 185.058609,117.060677 186.002243,115.932449 
	C194.009216,106.359024 201.956924,96.735298 210.039291,87.225998 
	C214.023026,82.538956 218.412094,82.255920 222.960922,86.227028 
	C226.472000,89.292160 229.840958,92.519691 233.288071,95.658600 
	C238.136703,100.073700 242.999176,104.473587 248.662766,109.612221 
	C248.662766,106.700699 248.662766,104.929794 248.662796,102.246445 
M218.318176,150.182632 
	C224.978241,150.130432 231.639206,150.129883 238.298172,150.014175 
	C248.941269,149.829254 248.771576,152.272247 248.616028,139.547073 
	C248.580521,136.642960 249.047318,132.648224 247.419220,131.026657 
	C237.895355,121.540932 227.817612,112.611336 217.709793,103.294060 
	C209.070084,113.654388 200.739655,123.595886 192.465714,133.584167 
	C187.754501,139.271515 184.186462,139.887695 177.896118,135.826736 
	C169.942444,130.691940 161.974701,125.576523 154.109314,120.308975 
	C151.862000,118.803925 150.258942,118.632996 147.959595,120.428497 
	C138.264572,127.999176 128.325867,135.258301 118.654160,142.857742 
	C117.271942,143.943817 116.864380,146.270309 116.005737,148.022736 
	C117.678085,148.690369 119.346222,149.926132 121.023430,149.938553 
	C139.678207,150.076920 158.335571,150.139297 176.989410,149.947510 
	C181.722931,149.898834 185.209473,151.417755 188.350327,154.887131 
	C194.943573,162.170013 201.787735,169.226212 208.557785,176.347977 
	C209.371750,177.204254 210.364609,177.890488 211.819717,179.113876 
	C211.819717,171.951874 211.896652,165.647858 211.793106,159.346817 
	C211.722214,155.032684 213.301361,151.943130 218.318176,150.182632 
z"/>
<path fill="#040403" opacity="1.000000" stroke="none" 
	d="
M173.000000,250.000000 
	C172.999939,266.654419 173.026840,282.808929 172.990799,298.963257 
	C172.964630,310.691895 164.627167,318.986786 152.947433,318.999359 
	C148.950455,319.003693 144.946869,319.143890 140.958466,318.959076 
	C137.304428,318.789825 135.883957,320.240875 135.950775,323.921875 
	C136.107925,332.579102 135.984375,341.241211 136.006409,349.901245 
	C136.017944,354.440033 135.334503,358.713440 130.500580,360.600891 
	C126.226295,362.269775 122.316399,360.086609 118.390839,355.817169 
	C107.484360,343.955353 96.339050,332.308960 85.073540,320.787231 
	C83.815918,319.501007 81.182671,319.088348 79.181694,319.074219 
	C61.196224,318.947144 43.209469,319.014740 25.223122,318.994080 
	C15.337549,318.982727 7.067878,310.967285 7.033633,301.028259 
	C6.939526,273.715973 6.939032,246.402908 7.031755,219.090591 
	C7.068528,208.259048 15.911534,200.135330 28.434538,200.076340 
	C69.069504,199.884964 109.707047,199.830856 150.341217,200.093369 
	C165.330627,200.190201 173.518860,208.627380 173.049591,223.521469 
	C172.777008,232.172928 173.000000,240.839966 173.000000,250.000000 
M156.211502,223.660217 
	C156.138123,216.999802 156.138123,216.992859 149.648941,216.992477 
	C109.674690,216.990219 69.700073,217.071274 29.726671,216.886871 
	C24.909382,216.864655 23.290178,218.246689 23.323229,223.069275 
	C23.492167,247.718903 23.470493,272.370667 23.338173,297.020752 
	C23.314093,301.506378 24.780483,303.150848 29.421890,303.092651 
	C47.074409,302.871368 64.740784,303.336273 82.381927,302.836609 
	C89.259628,302.641846 93.954201,304.886078 98.310760,309.932129 
	C104.656471,317.282227 111.583221,324.130707 119.306259,332.296936 
	C119.306259,324.695557 119.174080,318.611450 119.341949,312.535675 
	C119.524254,305.937469 122.510841,303.044678 128.836166,303.011963 
	C135.831482,302.975800 142.843323,302.712128 149.817200,303.100433 
	C154.912766,303.384186 156.365845,301.610901 156.316559,296.576630 
	C156.081772,272.594391 156.211517,248.608566 156.211502,223.660217 
z"/>
<path fill="#030504" opacity="1.000000" stroke="none" 
	d="
M441.007812,239.000000 
	C430.331604,237.146729 422.862213,241.024277 416.349670,248.920319 
	C408.649048,258.256958 399.908417,266.729004 391.809448,275.747192 
	C388.423676,279.517242 384.367126,281.247009 379.795288,279.553192 
	C375.509369,277.965302 374.873291,273.819427 374.951508,269.518799 
	C375.112091,260.693024 374.912781,251.860977 375.044830,243.034256 
	C375.089935,240.017639 374.025757,238.978973 370.991699,238.933228 
	C365.033142,238.843384 358.963593,238.975220 353.151886,237.885391 
	C343.435059,236.063278 338.020477,228.881165 338.009979,219.071854 
	C337.981476,192.419159 337.981903,165.766418 338.008667,139.113724 
	C338.020050,127.751060 345.772095,120.013794 357.155884,120.008369 
	C399.467072,119.988190 441.778259,119.996834 484.089447,120.002640 
	C495.294312,120.004173 503.819244,127.906181 503.919769,139.269196 
	C504.154083,165.753250 504.161133,192.242325 503.917999,218.726227 
	C503.810608,230.422638 494.822601,238.850204 482.983734,238.967102 
	C469.159088,239.103607 455.332062,238.999634 441.007812,239.000000 
M487.106903,172.500015 
	C487.106842,162.172043 486.953033,151.840637 487.182373,141.517761 
	C487.274048,137.391296 485.917847,136.002380 481.749207,136.014420 
	C441.103851,136.131821 400.457886,136.126633 359.812469,136.021561 
	C355.666901,136.010849 354.193359,137.547211 354.207458,141.585236 
	C354.294556,166.572037 354.299225,191.559494 354.201782,216.546219 
	C354.186401,220.481537 355.284363,222.342133 359.614929,222.131958 
	C365.930145,221.825500 372.271240,222.052582 378.601318,222.053513 
	C389.305481,222.055084 391.231812,224.014587 391.237183,234.910873 
	C391.239716,240.132233 391.237610,245.353592 391.237610,251.902206 
	C399.840210,242.746567 407.516449,234.710938 415.023163,226.519943 
	C417.931366,223.346603 421.202881,221.952469 425.553894,221.987900 
	C444.376251,222.141174 463.201538,221.953766 482.023438,222.132233 
	C485.997650,222.169922 487.233978,220.924622 487.181854,216.976593 
	C486.990509,202.486603 487.106567,187.992554 487.106903,172.500015 
z"/>
<path fill="#7B849B" opacity="1.000000" stroke="none" 
	d="
M285.000000,324.922913 
	C309.986023,324.923004 334.472107,324.952393 358.957947,324.887207 
	C362.118652,324.878784 364.342773,325.002228 364.324768,329.241150 
	C364.189819,361.055573 364.237915,392.870789 364.217438,424.685730 
	C364.217133,425.177124 364.074097,425.668457 363.935791,426.557434 
	C307.124664,426.557434 250.281784,426.557434 193.088760,426.557434 
	C192.984268,425.092407 192.792542,423.650909 192.791718,422.209290 
	C192.774414,391.726715 192.859253,361.243652 192.690384,330.762024 
	C192.665451,326.259644 193.842209,324.780060 198.549927,324.815460 
	C227.198608,325.030945 255.849701,324.922974 285.000000,324.922913 
M295.925446,389.458130 
	C301.524933,383.935974 304.472351,377.376007 304.059021,369.380737 
	C303.518066,358.916779 298.420959,351.346497 289.048187,347.148102 
	C279.276855,342.771149 269.768097,344.170349 261.639984,351.212036 
	C253.979675,357.848358 251.316132,366.578583 253.597321,376.416443 
	C257.975220,395.296478 280.702789,402.469788 295.925446,389.458130 
z"/>
<path fill="#FDDBCD" opacity="1.000000" stroke="none" 
	d="
M260.846344,205.058777 
	C282.229309,194.403595 303.990845,204.230835 308.589325,225.387268 
	C311.194183,237.371567 304.943237,250.903976 294.069519,257.673126 
	C284.055481,263.907104 273.342529,263.579468 263.691956,259.006226 
	C257.017303,255.843216 251.853317,249.372177 248.911057,241.625992 
	C244.924683,231.130966 247.967712,222.195938 253.366837,213.413300 
	C254.966522,210.811081 256.460236,208.138809 258.179901,205.619705 
	C258.496246,205.156296 259.666229,205.275620 260.846344,205.058777 
z"/>
<path fill="#5D6A85" opacity="1.000000" stroke="none" 
	d="
M333.000000,457.223022 
	C282.342133,457.222260 232.184235,457.227814 182.026352,457.212219 
	C175.869644,457.210297 173.297348,455.423523 172.912964,451.076172 
	C172.534012,446.790375 175.031891,443.610382 179.285278,443.053101 
	C180.269501,442.924164 181.282318,443.003937 182.281982,443.003906 
	C246.104141,443.002380 309.926300,443.000183 373.748444,443.006592 
	C379.580231,443.007172 382.542145,444.962799 383.084076,449.084351 
	C383.737549,454.054230 380.994904,457.144440 375.492279,457.181396 
	C361.495392,457.275360 347.497498,457.218994 333.000000,457.223022 
z"/>
<path fill="#67C4E5" opacity="1.000000" stroke="none" 
	d="
M246.999878,308.654846 
	C237.540115,308.654816 228.580368,308.654816 218.873627,308.654816 
	C219.931839,306.926270 220.581772,305.697449 221.384628,304.578339 
	C232.858749,288.584747 249.380356,281.620636 268.105164,279.096832 
	C275.359100,278.119202 282.849915,277.628479 290.102051,278.309204 
	C295.924957,278.855743 301.454010,282.168091 307.293213,283.017822 
	C312.288177,283.744720 316.224884,286.251770 319.870453,288.864685 
	C327.013000,293.983948 333.537140,299.983215 338.381165,308.654907 
	C307.627289,308.654907 277.563599,308.654907 246.999878,308.654846 
z"/>
<path fill="#A6E1EA" opacity="1.000000" stroke="none" 
	d="
M248.662781,102.702667 
	C248.662766,104.929794 248.662766,106.700699 248.662766,109.612221 
	C242.999176,104.473587 238.136703,100.073700 233.288071,95.658600 
	C229.840958,92.519691 226.472000,89.292160 222.960922,86.227028 
	C218.412094,82.255920 214.023026,82.538956 210.039291,87.225998 
	C201.956924,96.735298 194.009216,106.359024 186.002243,115.932449 
	C185.058609,117.060677 184.091476,118.169243 182.839249,119.632889 
	C174.361877,114.142609 166.062134,108.758583 157.753113,103.388916 
	C151.058594,99.062607 149.520493,99.100082 143.099243,103.907928 
	C134.240753,110.540642 125.412025,117.213120 115.879997,124.388374 
	C115.879997,107.073647 115.841362,90.652039 115.893333,74.230721 
	C115.929070,62.939709 114.459358,64.046600 125.945404,64.041298 
	C164.591385,64.023476 203.237381,64.033073 241.883362,64.035957 
	C248.336990,64.036438 248.647919,64.333786 248.658249,70.763374 
	C248.675095,81.257706 248.662796,91.752083 248.662781,102.702667 
M130.547729,68.802322 
	C123.395844,72.866180 119.946548,79.297279 121.421860,85.817207 
	C123.065926,93.082916 128.812546,98.349625 135.757843,98.955971 
	C142.275238,99.524956 149.002426,95.425453 151.655426,89.205734 
	C154.271530,83.072601 153.120483,77.357430 148.791855,72.609718 
	C144.035889,67.393288 137.999527,65.852371 130.547729,68.802322 
z"/>
<path fill="#65F0BD" opacity="1.000000" stroke="none" 
	d="
M217.917297,150.327118 
	C213.301361,151.943130 211.722214,155.032684 211.793106,159.346817 
	C211.896652,165.647858 211.819717,171.951874 211.819717,179.113876 
	C210.364609,177.890488 209.371750,177.204254 208.557785,176.347977 
	C201.787735,169.226212 194.943573,162.170013 188.350327,154.887131 
	C185.209473,151.417755 181.722931,149.898834 176.989410,149.947510 
	C158.335571,150.139297 139.678207,150.076920 121.023430,149.938553 
	C119.346222,149.926132 117.678085,148.690369 116.005737,148.022736 
	C116.864380,146.270309 117.271942,143.943817 118.654160,142.857742 
	C128.325867,135.258301 138.264572,127.999176 147.959595,120.428497 
	C150.258942,118.632996 151.862000,118.803925 154.109314,120.308975 
	C161.974701,125.576523 169.942444,130.691940 177.896118,135.826736 
	C184.186462,139.887695 187.754501,139.271515 192.465714,133.584167 
	C200.739655,123.595886 209.070084,113.654388 217.709793,103.294060 
	C227.817612,112.611336 237.895355,121.540932 247.419220,131.026657 
	C249.047318,132.648224 248.580521,136.642960 248.616028,139.547073 
	C248.771576,152.272247 248.941269,149.829254 238.298172,150.014175 
	C231.639206,150.129883 224.978241,150.130432 217.917297,150.327118 
z"/>
<path fill="#FA796D" opacity="1.000000" stroke="none" 
	d="
M156.211533,224.142120 
	C156.211517,248.608566 156.081772,272.594391 156.316559,296.576630 
	C156.365845,301.610901 154.912766,303.384186 149.817200,303.100433 
	C142.843323,302.712128 135.831482,302.975800 128.836166,303.011963 
	C122.510841,303.044678 119.524254,305.937469 119.341949,312.535675 
	C119.174080,318.611450 119.306259,324.695557 119.306259,332.296936 
	C111.583221,324.130707 104.656471,317.282227 98.310760,309.932129 
	C93.954201,304.886078 89.259628,302.641846 82.381927,302.836609 
	C64.740784,303.336273 47.074409,302.871368 29.421890,303.092651 
	C24.780483,303.150848 23.314093,301.506378 23.338173,297.020752 
	C23.470493,272.370667 23.492167,247.718903 23.323229,223.069275 
	C23.290178,218.246689 24.909382,216.864655 29.726671,216.886871 
	C69.700073,217.071274 109.674690,216.990219 149.648941,216.992477 
	C156.138123,216.992859 156.138123,216.999802 156.211533,224.142120 
M91.213181,227.856720 
	C79.879913,227.855118 68.545860,227.770599 57.213627,227.877991 
	C48.019367,227.965118 41.420612,234.211090 41.192417,243.426834 
	C40.920208,254.419998 40.919941,265.430115 41.190292,276.423370 
	C41.421745,285.835114 48.157833,291.987946 57.678955,292.028961 
	C67.512085,292.071320 77.360847,291.698914 87.174408,292.139587 
	C96.496910,292.558228 103.453300,289.748138 106.881165,280.076111 
	C113.085434,283.567688 118.943115,286.927704 124.860741,290.178650 
	C132.598877,294.429749 138.507462,291.109436 138.615402,282.188171 
	C138.794861,267.357056 138.799957,252.520477 138.613266,237.689545 
	C138.498947,228.608368 132.519028,225.474396 124.418716,229.958649 
	C118.658653,233.147339 112.925438,236.384537 107.182762,239.598694 
	C102.374825,230.769470 99.423706,228.521606 91.213181,227.856720 
z"/>
<path fill="#65EFBD" opacity="1.000000" stroke="none" 
	d="
M487.106903,173.000031 
	C487.106567,187.992554 486.990509,202.486603 487.181854,216.976593 
	C487.233978,220.924622 485.997650,222.169922 482.023438,222.132233 
	C463.201538,221.953766 444.376251,222.141174 425.553894,221.987900 
	C421.202881,221.952469 417.931366,223.346603 415.023163,226.519943 
	C407.516449,234.710938 399.840210,242.746567 391.237610,251.902206 
	C391.237610,245.353592 391.239716,240.132233 391.237183,234.910873 
	C391.231812,224.014587 389.305481,222.055084 378.601318,222.053513 
	C372.271240,222.052582 365.930145,221.825500 359.614929,222.131958 
	C355.284363,222.342133 354.186401,220.481537 354.201782,216.546219 
	C354.299225,191.559494 354.294556,166.572037 354.207458,141.585236 
	C354.193359,137.547211 355.666901,136.010849 359.812469,136.021561 
	C400.457886,136.126633 441.103851,136.131821 481.749207,136.014420 
	C485.917847,136.002380 487.274048,137.391296 487.182373,141.517761 
	C486.953033,151.840637 487.106842,162.172043 487.106903,173.000031 
M463.741669,185.943146 
	C468.325806,184.449997 470.563141,181.301544 469.867706,176.512634 
	C469.239380,172.185928 465.819641,170.014557 460.174713,170.008621 
	C446.385590,169.994110 432.596497,169.993805 418.807373,170.008240 
	C412.385834,170.014969 409.056763,172.704971 408.975525,177.884628 
	C408.892822,183.158356 412.172577,186.014160 418.516357,186.022949 
	C433.302094,186.043442 448.087891,186.006363 463.741669,185.943146 
M412.493896,162.996323 
	C416.157562,162.996246 419.821381,163.018890 423.484833,162.990891 
	C429.229980,162.946960 432.931671,159.794220 432.924072,154.993896 
	C432.916443,150.174393 429.240601,147.022278 423.481995,147.012070 
	C409.327026,146.986969 395.171936,146.986893 381.016968,147.011932 
	C375.046844,147.022491 371.769379,149.896759 371.769379,155.000000 
	C371.769379,160.103058 375.045441,162.970688 381.021393,162.988022 
	C391.179596,163.017487 401.337982,162.996246 412.493896,162.996323 
M371.944702,204.101273 
	C373.043945,208.477005 376.092987,210.273987 380.353119,210.319839 
	C385.514618,210.375427 390.682190,210.472656 395.837891,210.290375 
	C401.338745,210.095871 404.663086,206.809326 404.524536,202.102234 
	C404.388184,197.469910 400.841614,194.224167 395.473846,194.081802 
	C390.647736,193.953827 385.813751,193.967560 380.986603,194.073181 
	C374.777466,194.209015 372.205139,196.869568 371.944702,204.101273 
M453.676239,162.998535 
	C456.674072,162.995056 459.682709,163.151688 462.667114,162.949921 
	C466.953583,162.660110 469.989136,159.231384 469.992889,155.005157 
	C469.996643,150.772995 466.964111,147.273819 462.686035,147.059158 
	C458.366760,146.842422 454.006958,146.764420 449.708038,147.131149 
	C447.913574,147.284210 445.364197,148.319504 444.687927,149.702026 
	C443.497620,152.135422 442.548126,155.381683 443.178772,157.859802 
	C444.336273,162.408234 448.402832,163.401901 453.676239,162.998535 
M395.925415,185.751099 
	C398.983856,183.475113 400.159241,180.072525 398.690491,176.948013 
	C397.576996,174.579285 394.853271,171.913757 392.440186,171.437668 
	C387.960999,170.553925 383.132202,170.736404 378.548798,171.294800 
	C374.365753,171.804413 371.783447,174.656830 371.766510,179.198929 
	C371.751678,183.180984 373.721313,186.507309 377.495300,186.790543 
	C383.352509,187.230148 389.301544,186.446686 395.925415,185.751099 
M426.991882,194.087250 
	C425.172699,194.110397 423.312958,193.896423 421.541626,194.199371 
	C415.230957,195.278671 412.332184,201.934143 415.865021,206.992615 
	C418.007507,210.060333 424.374512,211.974991 429.020905,209.737106 
	C431.535797,208.525833 434.173248,205.255707 434.608826,202.566650 
	C435.315033,198.206711 432.099670,195.370300 426.991882,194.087250 
z"/>
<path fill="#050605" opacity="1.000000" stroke="none" 
	d="
M295.660126,389.700256 
	C280.702789,402.469788 257.975220,395.296478 253.597321,376.416443 
	C251.316132,366.578583 253.979675,357.848358 261.639984,351.212036 
	C269.768097,344.170349 279.276855,342.771149 289.048187,347.148102 
	C298.420959,351.346497 303.518066,358.916779 304.059021,369.380737 
	C304.472351,377.376007 301.524933,383.935974 295.660126,389.700256 
M276.148743,361.254517 
	C275.109833,361.768402 273.982422,362.156952 273.046997,362.817383 
	C268.495361,366.030975 267.668152,372.055115 271.110748,376.427856 
	C274.367218,380.564056 280.399719,381.320496 284.430725,377.834534 
	C287.531921,375.152649 288.954620,371.736023 287.421814,367.581512 
	C285.613892,362.681274 281.992401,360.703613 276.148743,361.254517 
z"/>
<path fill="#060807" opacity="1.000000" stroke="none" 
	d="
M130.864410,68.574249 
	C137.999527,65.852371 144.035889,67.393288 148.791855,72.609718 
	C153.120483,77.357430 154.271530,83.072601 151.655426,89.205734 
	C149.002426,95.425453 142.275238,99.524956 135.757843,98.955971 
	C128.812546,98.349625 123.065926,93.082916 121.421860,85.817207 
	C119.946548,79.297279 123.395844,72.866180 130.864410,68.574249 
z"/>
<path fill="#060605" opacity="1.000000" stroke="none" 
	d="
M91.672028,227.880157 
	C99.423706,228.521606 102.374825,230.769470 107.182762,239.598694 
	C112.925438,236.384537 118.658653,233.147339 124.418716,229.958649 
	C132.519028,225.474396 138.498947,228.608368 138.613266,237.689545 
	C138.799957,252.520477 138.794861,267.357056 138.615402,282.188171 
	C138.507462,291.109436 132.598877,294.429749 124.860741,290.178650 
	C118.943115,286.927704 113.085434,283.567688 106.881165,280.076111 
	C103.453300,289.748138 96.496910,292.558228 87.174408,292.139587 
	C77.360847,291.698914 67.512085,292.071320 57.678955,292.028961 
	C48.157833,291.987946 41.421745,285.835114 41.190292,276.423370 
	C40.919941,265.430115 40.920208,254.419998 41.192417,243.426834 
	C41.420612,234.211090 48.019367,227.965118 57.213627,227.877991 
	C68.545860,227.770599 79.879913,227.855118 91.672028,227.880157 
M57.684486,272.426514 
	C58.181263,273.607147 58.658669,275.808014 59.177666,275.817871 
	C69.746178,276.018524 80.319458,275.968384 90.608017,275.968384 
	C90.608017,264.861511 90.608017,254.460770 90.608017,244.255188 
	C79.466766,244.255188 68.693130,244.255188 57.684269,244.255188 
	C57.684269,253.497055 57.684269,262.469299 57.684486,272.426514 
M107.099739,261.141052 
	C111.924957,264.001709 116.750183,266.862335 122.196465,270.091187 
	C122.196465,263.589325 122.201904,258.275177 122.190651,252.961044 
	C122.188942,252.154251 122.109734,251.347626 122.036041,249.976608 
	C117.159500,252.736725 112.571121,255.261154 108.085464,257.956512 
	C107.464531,258.329620 107.351402,259.547852 107.099739,261.141052 
z"/>
<path fill="#040504" opacity="1.000000" stroke="none" 
	d="
M463.307678,185.967865 
	C448.087891,186.006363 433.302094,186.043442 418.516357,186.022949 
	C412.172577,186.014160 408.892822,183.158356 408.975525,177.884628 
	C409.056763,172.704971 412.385834,170.014969 418.807373,170.008240 
	C432.596497,169.993805 446.385590,169.994110 460.174713,170.008621 
	C465.819641,170.014557 469.239380,172.185928 469.867706,176.512634 
	C470.563141,181.301544 468.325806,184.449997 463.307678,185.967865 
z"/>
<path fill="#040504" opacity="1.000000" stroke="none" 
	d="
M411.995087,162.996323 
	C401.337982,162.996246 391.179596,163.017487 381.021393,162.988022 
	C375.045441,162.970688 371.769379,160.103058 371.769379,155.000000 
	C371.769379,149.896759 375.046844,147.022491 381.016968,147.011932 
	C395.171936,146.986893 409.327026,146.986969 423.481995,147.012070 
	C429.240601,147.022278 432.916443,150.174393 432.924072,154.993896 
	C432.931671,159.794220 429.229980,162.946960 423.484833,162.990891 
	C419.821381,163.018890 416.157562,162.996246 411.995087,162.996323 
z"/>
<path fill="#050605" opacity="1.000000" stroke="none" 
	d="
M371.883911,203.694458 
	C372.205139,196.869568 374.777466,194.209015 380.986603,194.073181 
	C385.813751,193.967560 390.647736,193.953827 395.473846,194.081802 
	C400.841614,194.224167 404.388184,197.469910 404.524536,202.102234 
	C404.663086,206.809326 401.338745,210.095871 395.837891,210.290375 
	C390.682190,210.472656 385.514618,210.375427 380.353119,210.319839 
	C376.092987,210.273987 373.043945,208.477005 371.883911,203.694458 
z"/>
<path fill="#050605" opacity="1.000000" stroke="none" 
	d="
M453.215271,162.998505 
	C448.402832,163.401901 444.336273,162.408234 443.178772,157.859802 
	C442.548126,155.381683 443.497620,152.135422 444.687927,149.702026 
	C445.364197,148.319504 447.913574,147.284210 449.708038,147.131149 
	C454.006958,146.764420 458.366760,146.842422 462.686035,147.059158 
	C466.964111,147.273819 469.996643,150.772995 469.992889,155.005157 
	C469.989136,159.231384 466.953583,162.660110 462.667114,162.949921 
	C459.682709,163.151688 456.674072,162.995056 453.215271,162.998505 
z"/>
<path fill="#050605" opacity="1.000000" stroke="none" 
	d="
M395.568542,185.966400 
	C389.301544,186.446686 383.352509,187.230148 377.495300,186.790543 
	C373.721313,186.507309 371.751678,183.180984 371.766510,179.198929 
	C371.783447,174.656830 374.365753,171.804413 378.548798,171.294800 
	C383.132202,170.736404 387.960999,170.553925 392.440186,171.437668 
	C394.853271,171.913757 397.576996,174.579285 398.690491,176.948013 
	C400.159241,180.072525 398.983856,183.475113 395.568542,185.966400 
z"/>
<path fill="#060807" opacity="1.000000" stroke="none" 
	d="
M427.400726,194.134674 
	C432.099670,195.370300 435.315033,198.206711 434.608826,202.566650 
	C434.173248,205.255707 431.535797,208.525833 429.020905,209.737106 
	C424.374512,211.974991 418.007507,210.060333 415.865021,206.992615 
	C412.332184,201.934143 415.230957,195.278671 421.541626,194.199371 
	C423.312958,193.896423 425.172699,194.110397 427.400726,194.134674 
z"/>
<path fill="#E3E7F3" opacity="1.000000" stroke="none" 
	d="
M276.534302,361.159271 
	C281.992401,360.703613 285.613892,362.681274 287.421814,367.581512 
	C288.954620,371.736023 287.531921,375.152649 284.430725,377.834534 
	C280.399719,381.320496 274.367218,380.564056 271.110748,376.427856 
	C267.668152,372.055115 268.495361,366.030975 273.046997,362.817383 
	C273.982422,362.156952 275.109833,361.768402 276.534302,361.159271 
z"/>
<path fill="#E8ECF9" opacity="1.000000" stroke="none" 
	d="
M57.684380,271.934021 
	C57.684269,262.469299 57.684269,253.497055 57.684269,244.255188 
	C68.693130,244.255188 79.466766,244.255188 90.608017,244.255188 
	C90.608017,254.460770 90.608017,264.861511 90.608017,275.968384 
	C80.319458,275.968384 69.746178,276.018524 59.177666,275.817871 
	C58.658669,275.808014 58.181263,273.607147 57.684380,271.934021 
z"/>
<path fill="#E3E7F3" opacity="1.000000" stroke="none" 
	d="
M107.051468,260.757935 
	C107.351402,259.547852 107.464531,258.329620 108.085464,257.956512 
	C112.571121,255.261154 117.159500,252.736725 122.036041,249.976608 
	C122.109734,251.347626 122.188942,252.154251 122.190651,252.961044 
	C122.201904,258.275177 122.196465,263.589325 122.196465,270.091187 
	C116.750183,266.862335 111.924957,264.001709 107.051468,260.757935 
z"/>
</svg>